<svg xmlns="http://www.w3.org/2000/svg" xmlns:xlink="http://www.w3.org/1999/xlink" width="1920" zoomAndPan="magnify" viewBox="0 0 1440 299.999988" height="400" preserveAspectRatio="xMidYMid meet" version="1.0"><defs><g/><clipPath id="0394912fcb"><path d="M 1121.882812 113.644531 L 1194.589844 113.644531 L 1194.589844 186.355469 L 1121.882812 186.355469 Z M 1121.882812 113.644531 " clip-rule="nonzero"/></clipPath><clipPath id="aae6d5f768"><path d="M 1158.234375 113.644531 C 1138.15625 113.644531 1121.882812 129.921875 1121.882812 150 C 1121.882812 170.078125 1138.15625 186.355469 1158.234375 186.355469 C 1178.3125 186.355469 1194.589844 170.078125 1194.589844 150 C 1194.589844 129.921875 1178.3125 113.644531 1158.234375 113.644531 Z M 1158.234375 113.644531 " clip-rule="nonzero"/></clipPath><clipPath id="f508d23cc9"><path d="M 1209.339844 113.644531 L 1282.046875 113.644531 L 1282.046875 186.355469 L 1209.339844 186.355469 Z M 1209.339844 113.644531 " clip-rule="nonzero"/></clipPath><clipPath id="1ef16ed895"><path d="M 1245.695312 113.644531 C 1225.617188 113.644531 1209.339844 129.921875 1209.339844 150 C 1209.339844 170.078125 1225.617188 186.355469 1245.695312 186.355469 C 1265.773438 186.355469 1282.046875 170.078125 1282.046875 150 C 1282.046875 129.921875 1265.773438 113.644531 1245.695312 113.644531 Z M 1245.695312 113.644531 " clip-rule="nonzero"/></clipPath><clipPath id="651745ac94"><path d="M 1297.046875 113.644531 L 1369.753906 113.644531 L 1369.753906 186.355469 L 1297.046875 186.355469 Z M 1297.046875 113.644531 " clip-rule="nonzero"/></clipPath><clipPath id="4fcff4041c"><path d="M 1333.402344 113.644531 C 1313.324219 113.644531 1297.046875 129.921875 1297.046875 150 C 1297.046875 170.078125 1313.324219 186.355469 1333.402344 186.355469 C 1353.480469 186.355469 1369.753906 170.078125 1369.753906 150 C 1369.753906 129.921875 1353.480469 113.644531 1333.402344 113.644531 Z M 1333.402344 113.644531 " clip-rule="nonzero"/></clipPath></defs><g fill="#ffffff" fill-opacity="1"><g transform="translate(70.244562, 218.413497)"><g><path d="M 26.5 1.453125 C 23.988281 1.453125 22.035156 0.722656 20.640625 -0.734375 C 19.253906 -2.191406 18.5625 -4.242188 18.5625 -6.890625 L 18.5625 -140.203125 C 18.5625 -142.984375 19.253906 -145.066406 20.640625 -146.453125 C 22.035156 -147.847656 23.988281 -148.546875 26.5 -148.546875 C 28.71875 -148.546875 30.488281 -148.09375 31.8125 -147.1875 C 33.132812 -146.28125 34.351562 -144.785156 35.46875 -142.703125 L 92.625 -35.046875 L 86.375 -35.046875 L 143.328125 -142.703125 C 144.441406 -144.785156 145.625 -146.28125 146.875 -147.1875 C 148.125 -148.09375 149.929688 -148.546875 152.296875 -148.546875 C 154.660156 -148.546875 156.535156 -147.847656 157.921875 -146.453125 C 159.316406 -145.066406 160.015625 -142.984375 160.015625 -140.203125 L 160.015625 -6.890625 C 160.015625 -4.242188 159.351562 -2.191406 158.03125 -0.734375 C 156.707031 0.722656 154.726562 1.453125 152.09375 1.453125 C 149.582031 1.453125 147.628906 0.722656 146.234375 -0.734375 C 144.847656 -2.191406 144.15625 -4.242188 144.15625 -6.890625 L 144.15625 -124.125 L 149.171875 -124.125 L 97.015625 -26.28125 C 96.035156 -24.476562 95.023438 -23.191406 93.984375 -22.421875 C 92.941406 -21.660156 91.445312 -21.28125 89.5 -21.28125 C 87.550781 -21.28125 86.019531 -21.695312 84.90625 -22.53125 C 83.789062 -23.363281 82.816406 -24.613281 81.984375 -26.28125 L 29.203125 -124.34375 L 34.21875 -124.34375 L 34.21875 -6.890625 C 34.21875 -4.242188 33.554688 -2.191406 32.234375 -0.734375 C 30.910156 0.722656 29 1.453125 26.5 1.453125 Z M 26.5 1.453125 "/></g></g></g><g fill="#ffffff" fill-opacity="1"><g transform="translate(248.620225, 218.413497)"><g><path d="M 58 1.875 C 48.125 1.875 39.566406 -0.28125 32.328125 -4.59375 C 25.097656 -8.90625 19.5 -14.988281 15.53125 -22.84375 C 11.570312 -30.695312 9.59375 -39.984375 9.59375 -50.703125 C 9.59375 -58.765625 10.703125 -66.03125 12.921875 -72.5 C 15.148438 -78.96875 18.421875 -84.492188 22.734375 -89.078125 C 27.046875 -93.671875 32.15625 -97.179688 38.0625 -99.609375 C 43.976562 -102.046875 50.625 -103.265625 58 -103.265625 C 67.875 -103.265625 76.425781 -101.109375 83.65625 -96.796875 C 90.882812 -92.484375 96.484375 -86.398438 100.453125 -78.546875 C 104.421875 -70.691406 106.40625 -61.410156 106.40625 -50.703125 C 106.40625 -42.628906 105.289062 -35.394531 103.0625 -29 C 100.832031 -22.601562 97.5625 -17.070312 93.25 -12.40625 C 88.9375 -7.75 83.828125 -4.203125 77.921875 -1.765625 C 72.015625 0.660156 65.375 1.875 58 1.875 Z M 58 -11.6875 C 64.257812 -11.6875 69.753906 -13.210938 74.484375 -16.265625 C 79.210938 -19.328125 82.863281 -23.78125 85.4375 -29.625 C 88.007812 -35.46875 89.296875 -42.492188 89.296875 -50.703125 C 89.296875 -63.359375 86.476562 -73.019531 80.84375 -79.6875 C 75.207031 -86.363281 67.59375 -89.703125 58 -89.703125 C 51.601562 -89.703125 46.070312 -88.207031 41.40625 -85.21875 C 36.75 -82.226562 33.132812 -77.847656 30.5625 -72.078125 C 27.988281 -66.304688 26.703125 -59.179688 26.703125 -50.703125 C 26.703125 -38.179688 29.550781 -28.546875 35.25 -21.796875 C 40.957031 -15.054688 48.539062 -11.6875 58 -11.6875 Z M 58 -11.6875 "/></g></g></g><g fill="#ffffff" fill-opacity="1"><g transform="translate(364.616559, 218.413497)"><g><path d="M 24.203125 39.015625 C 21.421875 39.015625 19.332031 38.28125 17.9375 36.8125 C 16.550781 35.351562 15.859375 33.234375 15.859375 30.453125 L 15.859375 -94.296875 C 15.859375 -97.078125 16.550781 -99.195312 17.9375 -100.65625 C 19.332031 -102.125 21.347656 -102.859375 23.984375 -102.859375 C 26.773438 -102.859375 28.898438 -102.125 30.359375 -100.65625 C 31.816406 -99.195312 32.546875 -97.078125 32.546875 -94.296875 L 32.546875 -74.484375 L 30.25 -77.40625 C 32.476562 -85.332031 36.894531 -91.625 43.5 -96.28125 C 50.101562 -100.9375 57.992188 -103.265625 67.171875 -103.265625 C 76.210938 -103.265625 84.101562 -101.144531 90.84375 -96.90625 C 97.59375 -92.664062 102.8125 -86.613281 106.5 -78.75 C 110.1875 -70.894531 112.03125 -61.546875 112.03125 -50.703125 C 112.03125 -39.984375 110.1875 -30.695312 106.5 -22.84375 C 102.8125 -14.988281 97.628906 -8.90625 90.953125 -4.59375 C 84.285156 -0.28125 76.359375 1.875 67.171875 1.875 C 57.992188 1.875 50.132812 -0.453125 43.59375 -5.109375 C 37.0625 -9.765625 32.613281 -15.988281 30.25 -23.78125 L 32.75 -23.78125 L 32.75 30.453125 C 32.75 33.234375 31.984375 35.351562 30.453125 36.8125 C 28.929688 38.28125 26.847656 39.015625 24.203125 39.015625 Z M 63.625 -11.6875 C 70.03125 -11.6875 75.5625 -13.210938 80.21875 -16.265625 C 84.875 -19.328125 88.488281 -23.78125 91.0625 -29.625 C 93.632812 -35.46875 94.921875 -42.492188 94.921875 -50.703125 C 94.921875 -63.359375 92.101562 -73.019531 86.46875 -79.6875 C 80.84375 -86.363281 73.226562 -89.703125 63.625 -89.703125 C 57.375 -89.703125 51.882812 -88.207031 47.15625 -85.21875 C 42.425781 -82.226562 38.773438 -77.847656 36.203125 -72.078125 C 33.628906 -66.304688 32.34375 -59.179688 32.34375 -50.703125 C 32.34375 -38.179688 35.191406 -28.546875 40.890625 -21.796875 C 46.585938 -15.054688 54.164062 -11.6875 63.625 -11.6875 Z M 63.625 -11.6875 "/></g></g></g><g fill="#ffffff" fill-opacity="1"><g transform="translate(486.245818, 218.413497)"><g><path d="M 47.78125 1.875 C 40.820312 1.875 34.59375 0.519531 29.09375 -2.1875 C 23.601562 -4.90625 19.257812 -8.625 16.0625 -13.34375 C 12.863281 -18.070312 11.265625 -23.359375 11.265625 -29.203125 C 11.265625 -36.710938 13.175781 -42.625 17 -46.9375 C 20.820312 -51.25 27.148438 -54.304688 35.984375 -56.109375 C 44.816406 -57.921875 56.882812 -58.828125 72.1875 -58.828125 L 81.578125 -58.828125 L 81.578125 -47.78125 L 72.390625 -47.78125 C 61.128906 -47.78125 52.265625 -47.253906 45.796875 -46.203125 C 39.328125 -45.160156 34.804688 -43.390625 32.234375 -40.890625 C 29.660156 -38.390625 28.375 -34.84375 28.375 -30.25 C 28.375 -24.550781 30.351562 -19.890625 34.3125 -16.265625 C 38.28125 -12.648438 43.671875 -10.84375 50.484375 -10.84375 C 56.046875 -10.84375 60.945312 -12.164062 65.1875 -14.8125 C 69.4375 -17.457031 72.773438 -21.070312 75.203125 -25.65625 C 77.640625 -30.25 78.859375 -35.535156 78.859375 -41.515625 L 78.859375 -65.296875 C 78.859375 -73.921875 77.117188 -80.144531 73.640625 -83.96875 C 70.160156 -87.789062 64.457031 -89.703125 56.53125 -89.703125 C 51.664062 -89.703125 46.796875 -89.078125 41.921875 -87.828125 C 37.054688 -86.578125 31.914062 -84.5625 26.5 -81.78125 C 24.550781 -80.8125 22.878906 -80.5 21.484375 -80.84375 C 20.097656 -81.1875 18.988281 -81.914062 18.15625 -83.03125 C 17.320312 -84.144531 16.832031 -85.429688 16.6875 -86.890625 C 16.550781 -88.347656 16.863281 -89.769531 17.625 -91.15625 C 18.394531 -92.550781 19.613281 -93.664062 21.28125 -94.5 C 27.394531 -97.5625 33.441406 -99.785156 39.421875 -101.171875 C 45.410156 -102.566406 51.113281 -103.265625 56.53125 -103.265625 C 65.300781 -103.265625 72.535156 -101.835938 78.234375 -98.984375 C 83.929688 -96.140625 88.171875 -91.832031 90.953125 -86.0625 C 93.742188 -80.289062 95.140625 -72.882812 95.140625 -63.84375 L 95.140625 -7.296875 C 95.140625 -4.515625 94.476562 -2.359375 93.15625 -0.828125 C 91.832031 0.691406 89.914062 1.453125 87.40625 1.453125 C 84.769531 1.453125 82.753906 0.691406 81.359375 -0.828125 C 79.972656 -2.359375 79.28125 -4.515625 79.28125 -7.296875 L 79.28125 -23.578125 L 81.15625 -23.578125 C 80.039062 -18.285156 77.914062 -13.757812 74.78125 -10 C 71.65625 -6.25 67.796875 -3.332031 63.203125 -1.25 C 58.617188 0.832031 53.476562 1.875 47.78125 1.875 Z M 47.78125 1.875 "/></g></g></g><g fill="#ffffff" fill-opacity="1"><g transform="translate(596.817855, 218.413497)"><g><path d="M 46.734375 1.875 C 36.722656 1.875 29.070312 -1.179688 23.78125 -7.296875 C 18.5 -13.421875 15.859375 -22.1875 15.859375 -33.59375 L 15.859375 -139.984375 C 15.859375 -142.765625 16.550781 -144.882812 17.9375 -146.34375 C 19.332031 -147.8125 21.421875 -148.546875 24.203125 -148.546875 C 26.847656 -148.546875 28.929688 -147.8125 30.453125 -146.34375 C 31.984375 -144.882812 32.75 -142.765625 32.75 -139.984375 L 32.75 -34.84375 C 32.75 -27.332031 34.242188 -21.734375 37.234375 -18.046875 C 40.222656 -14.359375 44.640625 -12.515625 50.484375 -12.515625 C 51.734375 -12.515625 52.84375 -12.582031 53.8125 -12.71875 C 54.789062 -12.863281 55.769531 -12.9375 56.75 -12.9375 C 58.28125 -13.070312 59.359375 -12.722656 59.984375 -11.890625 C 60.609375 -11.054688 60.921875 -9.390625 60.921875 -6.890625 C 60.921875 -4.378906 60.363281 -2.5 59.25 -1.25 C 58.132812 0 56.328125 0.832031 53.828125 1.25 C 52.710938 1.382812 51.53125 1.519531 50.28125 1.65625 C 49.03125 1.800781 47.847656 1.875 46.734375 1.875 Z M 46.734375 1.875 "/></g></g></g><g fill="#ffffff" fill-opacity="1"><g transform="translate(658.571295, 218.413497)"><g/></g></g><g fill="#ffffff" fill-opacity="1"><g transform="translate(712.402215, 218.413497)"><g><path d="M 64.875 1.671875 C 60.570312 1.671875 57.269531 0.453125 54.96875 -1.984375 C 52.675781 -4.421875 51.53125 -7.789062 51.53125 -12.09375 L 51.53125 -124.75 L 10.84375 -124.75 C 7.226562 -124.75 4.410156 -125.757812 2.390625 -127.78125 C 0.378906 -129.800781 -0.625 -132.550781 -0.625 -136.03125 C -0.625 -139.644531 0.378906 -142.390625 2.390625 -144.265625 C 4.410156 -146.140625 7.226562 -147.078125 10.84375 -147.078125 L 118.921875 -147.078125 C 122.535156 -147.078125 125.347656 -146.140625 127.359375 -144.265625 C 129.378906 -142.390625 130.390625 -139.644531 130.390625 -136.03125 C 130.390625 -132.550781 129.378906 -129.800781 127.359375 -127.78125 C 125.347656 -125.757812 122.535156 -124.75 118.921875 -124.75 L 78.234375 -124.75 L 78.234375 -12.09375 C 78.234375 -7.789062 77.117188 -4.421875 74.890625 -1.984375 C 72.671875 0.453125 69.332031 1.671875 64.875 1.671875 Z M 64.875 1.671875 "/></g></g></g><g fill="#ffffff" fill-opacity="1"><g transform="translate(841.959257, 218.413497)"><g><path d="M 29.421875 1.671875 C 25.109375 1.671875 21.800781 0.453125 19.5 -1.984375 C 17.207031 -4.421875 16.0625 -7.789062 16.0625 -12.09375 L 16.0625 -134.984375 C 16.0625 -139.429688 17.207031 -142.835938 19.5 -145.203125 C 21.800781 -147.566406 25.109375 -148.75 29.421875 -148.75 C 33.734375 -148.75 37.035156 -147.566406 39.328125 -145.203125 C 41.617188 -142.835938 42.765625 -139.429688 42.765625 -134.984375 L 42.765625 -12.09375 C 42.765625 -7.789062 41.648438 -4.421875 39.421875 -1.984375 C 37.203125 0.453125 33.867188 1.671875 29.421875 1.671875 Z M 29.421875 1.671875 "/></g></g></g><g fill="#ffffff" fill-opacity="1"><g transform="translate(900.79193, 218.413497)"><g><path d="M 28.578125 1.671875 C 24.679688 1.671875 21.691406 0.5625 19.609375 -1.65625 C 17.523438 -3.882812 16.484375 -6.945312 16.484375 -10.84375 L 16.484375 -136.234375 C 16.484375 -140.265625 17.59375 -143.359375 19.8125 -145.515625 C 22.039062 -147.671875 25.101562 -148.75 29 -148.75 C 32.476562 -148.75 35.222656 -148.085938 37.234375 -146.765625 C 39.253906 -145.441406 41.097656 -143.179688 42.765625 -139.984375 L 94.296875 -44.640625 L 87.625 -44.640625 L 139.15625 -139.984375 C 140.820312 -143.179688 142.628906 -145.441406 144.578125 -146.765625 C 146.523438 -148.085938 149.238281 -148.75 152.71875 -148.75 C 156.613281 -148.75 159.601562 -147.671875 161.6875 -145.515625 C 163.769531 -143.359375 164.8125 -140.265625 164.8125 -136.234375 L 164.8125 -10.84375 C 164.8125 -6.945312 163.800781 -3.882812 161.78125 -1.65625 C 159.769531 0.5625 156.75 1.671875 152.71875 1.671875 C 148.820312 1.671875 145.828125 0.5625 143.734375 -1.65625 C 141.648438 -3.882812 140.609375 -6.945312 140.609375 -10.84375 L 140.609375 -107.4375 L 145.203125 -107.4375 L 101.390625 -27.53125 C 100.003906 -25.164062 98.546875 -23.425781 97.015625 -22.3125 C 95.484375 -21.207031 93.394531 -20.65625 90.75 -20.65625 C 88.101562 -20.65625 85.945312 -21.242188 84.28125 -22.421875 C 82.613281 -23.609375 81.15625 -25.3125 79.90625 -27.53125 L 35.671875 -107.65625 L 40.6875 -107.65625 L 40.6875 -10.84375 C 40.6875 -6.945312 39.675781 -3.882812 37.65625 -1.65625 C 35.632812 0.5625 32.609375 1.671875 28.578125 1.671875 Z M 28.578125 1.671875 "/></g></g></g><g clip-path="url(#0394912fcb)"><g clip-path="url(#aae6d5f768)"><path fill="#ffffff" d="M 1121.882812 113.644531 L 1194.589844 113.644531 L 1194.589844 186.355469 L 1121.882812 186.355469 Z M 1121.882812 113.644531 " fill-opacity="1" fill-rule="nonzero"/></g></g><g clip-path="url(#f508d23cc9)"><g clip-path="url(#1ef16ed895)"><path fill="#b4b4b4" d="M 1209.339844 113.644531 L 1282.046875 113.644531 L 1282.046875 186.355469 L 1209.339844 186.355469 Z M 1209.339844 113.644531 " fill-opacity="1" fill-rule="nonzero"/></g></g><g clip-path="url(#651745ac94)"><g clip-path="url(#4fcff4041c)"><path fill="#898989" d="M 1297.046875 113.644531 L 1369.753906 113.644531 L 1369.753906 186.355469 L 1297.046875 186.355469 Z M 1297.046875 113.644531 " fill-opacity="1" fill-rule="nonzero"/></g></g></svg>